<?xml version="1.0" encoding="UTF-8"?>
<svg xmlns="http://www.w3.org/2000/svg" width="64" height="64" viewBox="0 0 64 64" fill="none">
  <path d="M13.97 35.6525H8C8 38.9525 10.6775 41.6225 13.97 41.6225H19.94C19.94 38.3225 17.2625 35.6525 13.97 35.6525Z" fill="black"></path>
  <path d="M21.4475 42.845H15.4775C15.4775 46.145 18.155 48.815 21.4475 48.815H27.4175C27.4175 45.515 24.74 42.845 21.4475 42.845Z" fill="black"></path>
  <path d="M17.2325 50.03H11.2625C11.2625 53.33 13.94 56 17.2325 56H23.2025C23.2025 52.7 20.525 50.03 17.2325 50.03Z" fill="black"></path>
  <path d="M39.665 8H28.43V56H39.665V8Z" fill="black"></path>
  <path d="M56 8H44.765V56H56V8Z" fill="black"></path>
</svg>
