<?xml version="1.0" encoding="UTF-8"?>
<svg xmlns="http://www.w3.org/2000/svg" width="63" height="64" viewBox="0 0 63 64" fill="none">
  <path d="M38.1026 17.5775V8C32.8151 8 28.5251 12.29 28.5251 17.5775V27.155C33.8126 27.155 38.1026 22.865 38.1026 17.5775Z" fill="black"></path>
  <path d="M25.2251 28.7375L18.5425 21.8825C14.755 25.5725 14.6726 31.6325 18.3626 35.42L25.0451 42.275C28.8326 38.585 28.9151 32.525 25.2251 28.7375Z" fill="black"></path>
  <path d="M36.7676 28.7375L43.4501 21.8825C47.2376 25.5725 47.3201 31.6325 43.6301 35.42L36.9476 42.275C33.1601 38.585 33.0776 32.525 36.7676 28.7375Z" fill="black"></path>
  <path d="M55 56V44.765H7V56H55Z" fill="black"></path>
</svg>
