<svg width="600" height="265" viewBox="0 0 600 265" fill="none" xmlns="http://www.w3.org/2000/svg">
<path d="M264.8 251.1C263.6 251.1 262.6 250.1 262.6 248.9V24.7C262.6 23.5 263.5 22.5 264.7 22.4C265.9 22.4 266.9 23.3 267 24.5C267 24.6 267 24.6 267 24.7V248.8C267 250.1 266 251.1 264.8 251.1ZM298.3 104.4H344V114.2H309.1V131H340V140.8H309.1V165.8H298.3V104.4ZM377.8 149.2V146C375.1 144.9 371.5 144.2 367.3 144.2C360.5 144.2 356.4 147.1 356.4 151.9V152.1C356.4 156.6 360.3 159.1 365.4 159.1C372.5 159.1 377.8 155 377.8 149.2ZM346.1 152.5V152.3C346.1 142.3 353.9 137.4 365.2 137.4C370.4 137.4 374 138.2 377.6 139.3V138.2C377.6 131.6 373.6 128.1 366.1 128.1C360.9 128.1 357.1 129.2 352.9 131L350.1 122.7C355.2 120.4 360.2 118.9 367.5 118.9C374.4 118.9 379.6 120.7 382.8 124.1C386.2 127.4 387.8 132.3 387.8 138.4V165.8H377.5V160C374.3 163.8 369.5 166.8 362.4 166.8C353.8 166.8 346.1 161.8 346.1 152.5Z" fill="#002664"/>
<path d="M397.9 165.8H408.5V119.5H397.9V165.8ZM397.5 112.4H408.9V102.3H397.5V112.4ZM419.1 119.5H429.7V130C432.6 123.1 437.9 118.3 446.1 118.7V129.9H445.5C436.2 129.9 429.7 136 429.7 148.2V165.8H419.1V119.5ZM316.2 198.8H296.8V188.8H346.6V198.8H327.1V250.2H316.2V198.8ZM347.1 203.9H357.7V214.3C360.6 207.4 365.9 202.6 374.1 203V214.2H373.5C364.2 214.2 357.7 220.3 357.7 232.5V250.1H347.1V203.9ZM406.5 233.5V230.3C403.8 229.2 400.2 228.5 396 228.5C389.2 228.5 385.1 231.4 385.1 236.2V236.4C385.1 240.9 389 243.4 394.1 243.4C401.2 243.4 406.5 239.4 406.5 233.5ZM374.8 236.9V236.7C374.8 226.7 382.6 221.8 393.9 221.8C399.1 221.8 402.7 222.6 406.3 223.7V222.6C406.3 216 402.3 212.5 394.8 212.5C389.6 212.5 385.8 213.6 381.6 215.4L378.8 207.1C383.9 204.8 388.9 203.3 396.2 203.3C403.1 203.3 408.3 205.1 411.5 208.5C414.9 211.8 416.5 216.7 416.5 222.8V250.2H406.2V244.4C403 248.2 398.2 251.2 391.1 251.2C382.5 251.2 374.8 246.2 374.8 236.9ZM461.1 227.1V227C461.1 218.1 454.8 212.2 447.7 212.2C440.4 212.2 434.4 217.8 434.4 227V227.2C434.4 236.1 440.5 242 447.7 242C454.8 242 461.1 236 461.1 227.1ZM423.7 227.1V227C423.7 211.7 434.1 203 445.2 203C452.8 203 457.6 206.8 461 211.2V186.3H471.6V250.3H461V242.6C457.6 247.4 452.8 251.3 445.2 251.3C434.3 251.2 423.7 242.5 423.7 227.1ZM482.2 250.2H492.8V203.9H482.2C482.2 203.9 482.2 250.2 482.2 250.2ZM481.8 196.8H493.2V186.7H481.8V196.8ZM503.4 203.9H514V211C517 206.7 521.3 202.9 528.5 202.9C538.9 202.9 545 209.9 545 220.6V250.1H534.4V223.8C534.4 216.6 530.8 212.5 524.5 212.5C518.4 212.5 514.1 216.8 514.1 224V250.1H503.5V203.9H503.4ZM589.6 224.8V224.6C589.6 217.1 583.4 211.9 576 211.9C568.6 211.9 562.9 217 562.9 224.6V224.8C562.9 232.3 568.8 237.5 576 237.5C583.3 237.5 589.6 232.3 589.6 224.8ZM554.4 258.9L558.3 250.9C563.3 254 568.5 255.8 574.8 255.8C584.3 255.8 589.4 250.9 589.4 241.6V238C585.5 243 580.7 246.5 573.1 246.5C562.2 246.5 552.1 238.4 552.1 224.8V224.6C552.1 210.9 562.4 202.9 573.1 202.9C580.9 202.9 585.7 206.5 589.3 210.8V203.9H600V240.7C600 248.5 598 254.3 594.1 258.1C589.9 262.3 583.4 264.3 575.1 264.3C567.5 264.4 560.4 262.5 554.4 258.9ZM209.8 150.6L199.7 194L189.1 150.6H174.5L163.7 193.5L153.9 150.6H138L155.6 218.3H171.3L181.6 175.4L192.1 218.3H207.5L207.7 217.7L225.4 150.5C225.5 150.6 209.8 150.6 209.8 150.6ZM63.8 193.9L27 150.6H11.4V218.4H26.6V175.2L63.3 218.4H79V150.6H63.8V193.9ZM9.79999 239.1C9.79999 233.2 14.3 228.2 20.6 228.2C24.3 228.2 26.5 229.2 28.7 231L26.4 233.8C24.8 232.4 23.2 231.6 20.5 231.6C16.6 231.6 13.7 235 13.7 239V239.1C13.7 243.4 16.5 246.6 20.8 246.6C22.8 246.6 24.6 246 25.9 245V241H20.5V237.8H29.4V246.6C27 248.7 23.9 249.9 20.7 249.9C14.1 249.9 9.79999 245.2 9.79999 239.1ZM49.7 239.1C49.7 235 46.7 231.6 42.6 231.6C38.4 231.6 35.5 234.9 35.5 239V239.1C35.5 243.2 38.5 246.6 42.6 246.6C46.7 246.5 49.7 243.2 49.7 239.1ZM31.6 239.1C31.6 233.1 36.2 228.2 42.6 228.2C49 228.2 53.5 233.1 53.5 239V239.1C53.5 245 48.9 249.9 42.5 249.9C36.1 249.9 31.6 245 31.6 239.1ZM53.2 228.6H57.3L63.6 244.7L69.9 228.6H73.9L65.2 249.7H62L53.2 228.6ZM76.4 228.6H91.9V231.9H80V237.4H90.5V240.7H80V246.3H92V249.6H76.4V228.6ZM104.7 239C107.3 239 109 237.6 109 235.5V235.4C109 233.2 107.4 231.9 104.7 231.9H99.3V238.9H104.7V239ZM95.7 228.6H105C107.6 228.6 109.7 229.4 111 230.7C112.1 231.8 112.7 233.4 112.7 235.2V235.3C112.7 238.7 110.6 240.8 107.7 241.7L113.4 249.6H109.1L104 242.3H99.4V249.6H95.7V228.6ZM116 228.6H119.4L130.6 243.1V228.6H134.2V249.6H131.1L119.5 234.7V249.6H116V228.6ZM138 228.6H141.9L148.3 238.5L154.7 228.6H158.6V249.6H155V234.6L148.4 244.5H148.3L141.7 234.7V249.7H138V228.6ZM162.1 228.6H177.6V231.9H165.7V237.4H176.2V240.7H165.7V246.3H177.7V249.6H162V228.6H162.1ZM181.5 228.6H184.9L196.1 243.1V228.6H199.7V249.6H196.6L185 234.7V249.6H181.4L181.5 228.6ZM209.3 232H202.7V228.6H219.7V232H213V249.6H209.3V232ZM83.2 208.9L92.1 198.2C98.3 203.3 104.8 206.6 112.6 206.6C118.8 206.6 122.5 204.1 122.5 200.1V199.9C122.5 196.1 120.1 194.1 108.6 191.1C94.7 187.6 85.8 183.7 85.8 170.1V169.9C85.8 157.4 95.8 149.2 109.9 149.2C119.9 149.2 128.5 152.3 135.5 158L127.6 169.4C121.5 165.2 115.5 162.6 109.7 162.6C103.9 162.6 100.9 165.3 100.9 168.6V168.8C100.9 173.3 103.8 174.8 115.7 177.9C129.7 181.5 137.5 186.5 137.5 198.6V198.8C137.5 212.5 127.1 220.1 112.2 220.1C102 219.9 91.5 216.3 83.2 208.9Z" fill="#002664"/>
<path d="M116.6 134.8C116.3 134.8 120.9 135.9 120.9 136.8C144.9 134.7 153.7 141.6 171.6 141.6C183 141.6 188.4 139 189.3 133.8C190.7 122.4 173.1 134.2 138.6 130.3C137.9 128.4 140.8 128.6 145.3 128.6C186.8 127.9 197.7 125.4 215.5 117.7C221.6 114.9 224.1 112.7 226.4 110.7C227.3 110 228.1 109.2 228.9 108.3C229.1 108 229.3 107.8 229.4 107.7L229.5 107.6H229.6C230.2 106.7 230.5 105.7 230.4 104.7C230.4 103.1 230.4 101.4 229.1 100.5C229.1 100.5 228.5 100.1 227.4 99.3C224.2 97.1 217.2 91.9 207.1 86.8C207.1 86.8 207 86.7 208 85.2C220.7 69 221.9 59.5 222.1 58V57.8C222.1 56.8 221.8 55.7 221.2 54.9C220.3 53.5 218.8 52.6 217.1 52.5C217.1 52.5 214.3 52.4 209.5 52.4C205.5 52.4 200.1 52.7 192.2 53.3C190.4 51.9 190.5 50.5 190.5 49.1C190.5 43.3 190.2 37.5 189.7 31.7C189.3 27.4 188.9 24.9 188.9 24.9C188.5 22.8 187.3 21.8 185.7 21.8C185.2 21.8 184.7 21.9 184.1 22.1C184.1 22.1 183.4 22.4 182.1 22.9C178.5 24.5 171.3 28.3 161.4 32.2C158.7 18.4 155 10.4 155 10.4C154.3 8.39999 152.9 7.59999 151.2 7.89999C150.7 7.99999 150.2 8.2 149.7 8.5C149.7 8.5 147 10.1 142.9 13.2C139.2 15.9 135.6 18.7 132.1 21.6L130.2 22.9C127 18.7 125 14.7 123 11.5C121.6 9.2 120.4 7.30001 119.6 6.10001C118.8 4.90001 118.5 4.2 118.5 4.2C117.7 3 116.9 2.7 116.6 2.7H116.5C116.2 2.7 115.4 3 114.6 4.2C114.6 4.2 114.2 4.90001 113.5 6.10001C112.7 7.40001 111.5 9.2 110.1 11.5C108.2 14.7 106.2 18.7 103 22.8L101.1 21.5C97.6 18.6 94 15.7 90.3 13.1C86.1 10.1 83.5 8.49999 83.5 8.39999C83.1 8.09999 82.6 7.9 82 7.8C80.3 7.5 79 8.3 78.2 10.3C78.2 10.3 74.5 18.3 71.8 32.1C61.9 28.2 54.7 24.4 51.1 22.8C49.8 22.2 49.1 22 49.1 22C48.6 21.8 48 21.7 47.5 21.7C45.9 21.8 44.6 22.7 44.3 24.8C44.3 24.8 43.9 27.3 43.5 31.6C42.9 37.4 42.7 43.2 42.7 49C42.7 50.4 42.7 51.8 41 53.2C33.1 52.5 27.7 52.3 23.7 52.3C18.9 52.3 16.1 52.4 16.1 52.4C14.4 52.5 12.9 53.4 12 54.8C11.4 55.6 11.1 56.7 11.1 57.7V57.9C11.2 59.4 12.4 68.9 25.2 85.1C26.1 86.6 26.1 86.6 26.1 86.7C15.9 91.8 8.89999 96.9 5.79999 99.2C4.69999 99.9 4.09999 100.4 4.09999 100.4C2.79999 101.4 2.79999 103 2.79999 104.6C2.79999 105.6 3.09999 106.7 3.69999 107.5C3.69999 107.5 3.69999 107.6 3.79999 107.6C3.89999 107.7 4.09999 107.9 4.29999 108.2C5.09999 109.1 5.89999 109.9 6.79999 110.6C9.19999 112.6 11.6 114.9 17.7 117.6C35.5 125.3 46.5 127.8 87.9 128.5C92.4 128.6 95.2 128.3 94.6 130.2C60.1 134.1 42.4 122.4 43.9 133.7C44.8 139 50.2 141.5 61.6 141.5C79.5 141.5 88.3 134.6 112.3 136.7C112.3 135.7 116.9 134.7 116.6 134.7V134.8Z" fill="white"/>
<path d="M113.9 134C113.8 134.3 113.7 134.7 113.8 135.1H113.9C113.9 135 113.9 134.8 113.9 134.7C113.9 134.6 113.9 134 113.9 134ZM119.1 135.1C119.2 134.7 119.2 134.4 119 134L119.1 134.7C119.1 134.8 119.1 134.9 119.1 135.1ZM46.4 133.4C46.7 135 47.5 138.9 61.4 138.9C68.6 138.9 74.3 137.7 80.3 136.5C86.9 135.1 93.8 133.7 103.2 133.7C105.7 133.7 108.4 133.8 111.1 134C111.9 133.4 113 133 114 132.7V132.4L116.1 132.1L116.2 132.8V132H116.3L116.5 133.7L116.8 132L118.9 132.3V132.6C119.9 132.9 121 133.3 121.8 133.9C124.4 133.7 127 133.6 129.7 133.6C139.1 133.6 145.9 135 152.6 136.4C158.6 137.6 164.3 138.8 171.5 138.8C185.4 138.8 186.3 134.8 186.5 133.3C186.7 132 186.4 131.7 186.4 131.7C186.4 131.7 186 131.3 183.8 131.3C181.8 131.3 179 131.6 175.5 132.1C169.9 132.8 162.3 133.7 153.2 133.7C148.2 133.7 143.1 133.4 138.1 132.8L136.4 132.6L135.9 131C135.3 129.4 135.9 128.2 136.3 127.6C137.6 125.8 140 125.7 143.5 125.7C144 125.7 144.5 125.7 145 125.7C187.2 125 197.5 122.2 214.2 115C219.5 112.6 221.7 110.7 224 108.8L224.5 108.4C225.7 107.4 226.4 106.7 226.6 106.4V104.7H227.5C227.5 104.6 227.5 104.5 227.5 104.4C227.5 103.6 227.5 102.5 227.3 102.3C227.3 102.3 226.7 101.9 225.7 101.2L224.8 100.6C221.3 98.1 214.8 93.5 205.6 88.9L205.2 88.7L204.9 88.4C203.3 86.8 204.4 85 205.4 83.5L205.6 83.3C217.3 68.4 218.9 59.6 219.1 57.6V57.5C219.1 57 219 56.5 218.7 56.1C218.3 55.4 217.5 54.9 216.7 54.9C216.7 54.9 213.9 54.8 209.2 54.8C204.6 54.9 199 55.2 192.1 55.7L191 55.8L190.2 55.1C187.5 52.9 187.5 50.4 187.5 48.9V49C187.5 41 187 34.8 186.7 31.9C186.3 27.7 186 25.3 186 25.3C185.8 24.5 185.6 24.5 185.3 24.4C185.1 24.4 184.9 24.5 184.8 24.5C184.8 24.5 184.1 24.8 182.9 25.3C181.9 25.7 180.5 26.4 178.8 27.2C174.7 29.2 169.1 31.8 162.1 34.6L159.1 35.8L158.5 32.6C156.2 21 153.2 13.5 152.4 11.5C152.4 11.4 152.3 11.3 152.3 11.2C152 10.4 151.8 10.4 151.7 10.4C151.6 10.4 151.6 10.4 151.5 10.4H151.3C151.3 10.4 151.2 10.4 151 10.6C150.8 10.7 150.7 10.8 150.5 10.9C149.6 11.5 147.3 12.9 144.3 15.1C140.6 17.7 137.1 20.5 133.6 23.4L133.4 23.6L129.4 26.2L127.9 24.2C125.5 21.1 123.8 18.1 122.3 15.5C121.7 14.5 121.2 13.5 120.6 12.6C119.9 11.5 119.3 10.5 118.7 9.60001C118.2 8.80001 117.7 8 117.2 7.2C116.9 6.7 116.6 6.19999 116.4 5.89999C116.2 6.19999 115.9 6.7 115.6 7.2C115.3 7.7 114.9 8.40001 114.4 9.10001C113.7 10.1 113 11.3 112.2 12.6C111.8 13.3 111.3 14.1 110.9 14.9C109.3 17.7 107.6 20.8 105 24.2L103.5 26.2L99.3 23.4C95.8 20.5 92.3 17.7 88.6 15.1C86.6 13.6 84.5 12.2 82.4 10.9C82.2 10.8 82 10.7 81.9 10.5C81.7 10.4 81.6 10.3 81.6 10.3H81.4C81.3 10.3 81.3 10.3 81.2 10.3C81.1 10.3 80.9 10.3 80.6 11C80.6 11.1 80.5 11.2 80.5 11.3C79.6 13.3 76.6 20.8 74.4 32.4L73.8 35.6L70.8 34.4C63.7 31.6 58.1 28.9 54 26.9C52.7 26.3 51.4 25.6 50 25C49.4 24.7 48.7 24.5 48.1 24.2C47.9 24.1 47.7 24.1 47.5 24.1C47.3 24.1 47 24.2 46.9 25C46.9 25 46.5 27.4 46.2 31.5C45.9 34.5 45.4 40.7 45.4 48.6V48.7C45.4 50.2 45.4 52.7 42.7 54.9L41.9 55.6L40.8 55.5C33.9 54.9 28.3 54.6 23.7 54.6C21.2 54.6 18.7 54.6 16.2 54.7C15.4 54.8 14.7 55.2 14.2 55.9C13.9 56.3 13.8 56.8 13.8 57.3V57.4C14 59.3 15.6 68.1 27.3 83L27.5 83.2C28.5 84.7 29.6 86.5 28 88.1L27.7 88.4L27.3 88.6C18.1 93.2 11.6 97.8 8.1 100.3L7.3 100.9C6.8 101.3 6.2 101.6 5.7 102C5.5 102.2 5.5 103.3 5.5 104.1C5.5 104.2 5.5 104.3 5.5 104.4H6.3V106.1C7 106.8 7.7 107.5 8.4 108.1L8.9 108.6C11.1 110.5 13.4 112.4 18.7 114.8C35.4 122 45.7 124.8 87.9 125.5H89.5C93.1 125.5 95.4 125.5 96.7 127.4C97.1 128 97.7 129.1 97.1 130.8L96.6 132.4L94.9 132.6C89.9 133.2 84.8 133.4 79.8 133.4C70.7 133.4 63.1 132.5 57.5 131.8C54 131.4 51.2 131 49.2 131C47 131 46.6 131.4 46.6 131.4C46.5 131.8 46.2 132.1 46.4 133.4ZM61.4 144.3C53.4 144.3 42.6 143.3 41.1 134.3V134.2C40.8 131.6 41.2 129.7 42.5 128.3C32.7 126.6 25.4 124 16.5 120.2C10.5 117.5 7.7 115.1 5.4 113.2L4.9 112.8C4 112 3.1 111.2 2.3 110.3H2.1L1.3 109.1C0.499999 107.8 0 106.3 0 104.7C0 102.9 -4.76837e-07 100.1 2.4 98.3C2.4 98.3 3 97.9 4.2 97.1L4.9 96.6C8.2 94.3 14 90.2 22.2 85.8C10.4 70.4 8.7 60.9 8.4 58.3V57.9C8.4 56.3 8.9 54.8 9.7 53.5C11.1 51.4 13.3 50.1 15.8 49.9C15.9 49.9 18.8 49.8 23.6 49.8C28.1 49.9 33.4 50.1 39.8 50.6C39.9 50.3 39.9 49.9 39.9 49.3V49C39.9 40.8 40.4 34.4 40.7 31.3C41.1 27 41.5 24.5 41.5 24.4C42.1 21.1 44.3 19.1 47.3 19H47.4C48.3 19 49.1 19.2 50 19.5C50 19.5 50.7 19.8 52.1 20.4C53.2 20.9 54.6 21.6 56.2 22.3C60.6 24.5 65.1 26.5 69.7 28.4C71.9 18.4 74.5 11.9 75.5 9.39999C76.6 6.39999 79.1 4.8 82.1 5.2C82.9 5.3 83.8 5.60001 84.6 6.10001L85.9 6.89999C87.1 7.69999 89.1 9 91.6 10.8C95.2 13.4 98.7 16.1 102.1 19C103.7 16.7 105 14.4 106.1 12.4C106.6 11.6 107 10.8 107.5 10C108.3 8.6 109.1 7.39999 109.8 6.39999C110.3 5.69999 110.6 5.10001 111 4.60001C111.7 3.40001 112.1 2.8 112.1 2.8L112.2 2.7C113.3 0.999997 114.7 0.1 116.1 0H116.4C117.9 0 119.4 0.999997 120.5 2.7L120.6 2.89999C120.6 2.89999 121 3.5 121.7 4.7C122.1 5.4 122.6 6.20001 123.2 7.10001C123.8 8.00001 124.4 9.00001 125.1 10.1C125.7 11 126.3 12 126.9 13.1C128 15 129.2 17 130.6 19.2C134 16.4 137.5 13.6 141.1 11C143 9.6 144.9 8.30001 146.8 7.10001L148.1 6.3C148.9 5.8 149.8 5.49999 150.6 5.39999C150.9 5.39999 151.3 5.3 151.6 5.3C154.2 5.3 156.2 6.8 157.2 9.5C158.3 12 160.8 18.5 163 28.5C168.5 26.2 173 24.1 176.4 22.4C178.1 21.6 179.5 20.9 180.6 20.4C181.9 19.8 182.7 19.5 182.7 19.5C183.6 19.2 184.4 19 185.3 19C188.4 19.1 190.6 21.1 191.2 24.3C191.2 24.5 191.6 27 192 31.3C192.3 34.3 192.8 40.7 192.8 48.9V49C192.8 49.6 192.8 50 192.9 50.3C199.3 49.8 204.6 49.5 209.1 49.5C214 49.5 216.8 49.6 216.9 49.6C219.4 49.7 221.7 51.1 223.1 53.2C223.9 54.4 224.4 55.9 224.4 57.6V58C224.1 60.6 222.4 70.1 210.6 85.5C218.8 89.8 224.6 93.9 227.8 96.3L228.6 96.9C229.7 97.7 230.3 98.1 230.3 98.1C232.7 99.9 232.7 102.6 232.7 104.5C232.7 106.1 232.3 107.6 231.4 108.9L230.6 110.1H230.3C229.5 111 228.6 111.8 227.7 112.6L227.2 113C224.9 114.9 222.1 117.3 216.1 120C207.1 123.9 199.8 126.4 190.1 128.1V128.2C191.3 129.6 191.8 131.5 191.5 134.1V134.2C190 143.2 179.2 144.3 171.2 144.3C163.5 144.3 157.2 143 151.2 141.8C144.8 140.5 138.3 139.1 129.4 139.1C126.6 139.1 123.7 139.2 120.7 139.5L117.8 139.8V138.2C117.2 138 116.7 137.8 116.1 137.6C115.4 137.8 114.8 138 114.4 138.2V139.8L111.5 139.5C108.6 139.2 105.7 139.1 102.8 139.1C94 139.1 87.4 140.5 81 141.8C75.4 143 69.2 144.3 61.4 144.3Z" fill="white"/>
<path d="M47.6 22C46.2 22 45.3 22.9 45 24.5C45 24.5 44.7 27 44.3 31.2C43.8 36.9 43.5 42.6 43.5 48.4C43.5 64.7 45.6 87.9 55.8 105.7C63.6 119.3 74.6 126.9 86.9 127.3C80.5 122.5 75.8 115.8 73.4 108.1C70.5 99.1 69.1 88.6 69.1 76.6C69.1 60.1 71.9 46 72.7 42.1C72.7 42 72.7 42 72.7 41.9C73.2 39.6 74.5 37.8 76.3 36.8C63.8 28.8 53 24 50.9 23.2C49.7 22.6 49 22.4 49 22.4C48.5 22.1 48 22 47.6 22ZM154.2 41C153.9 41 153.5 41.1 153.1 41.4C153.1 41.4 152.7 41.7 152 42.3C151.3 42.9 150.3 43.7 148.9 45C145.3 48.2 142 51.6 138.7 55.1C131.6 63 122.3 75.4 117.8 89.7C115.2 98.1 114 105.3 114 111.2C114 115.6 114.7 119.4 116.1 122.3C117.4 125.1 119.6 127.4 122.4 128.6C123.6 129.1 125.2 129.4 127 129.4H127.1C135.7 129.4 149.9 122.3 154.9 106.4C157.5 97.8 158.9 87.7 158.9 76.4C158.9 62.3 156.9 50 156 45.3C155.7 43.6 155.5 42.7 155.5 42.7C155.3 42 154.9 41 154.2 41Z" fill="#C60C30"/>
<path d="M78.9 41C78.1 41 77.7 42 77.4 42.8L76.9 45.4C76.7 46.6 76.2 49.1 75.7 52.7C74.9 58.3 73.9 66.9 73.9 76.5C73.9 88 75.3 98.1 77.9 106.5C82.9 122.4 97.6 129.6 106.4 129.6H106.5C108.4 129.6 110 129.3 111.3 128.7C112 128.4 112.7 128 113.5 127.5C112.8 126.6 112.2 125.6 111.8 124.6C110.1 121 109.2 116.7 109.2 111.4C109.3 104.8 110.6 97.1 113.3 88.4C113.5 87.6 113.8 86.8 114.1 86C114.2 85.7 114.3 85.4 114.4 85.1C105.1 61.9 83.6 44.4 81.2 42.5C80.4 41.9 80 41.6 80 41.6C79.6 41.2 79.2 41 78.9 41ZM116.5 3C116 3 115.4 3.4 114.9 4.2C114.9 4.2 114.5 4.8 113.7 6C112.6 7.8 111.6 9.5 110.6 11.3C107.1 17.5 104 23.8 101.2 30.3C98.7 36 96.5 41.8 94.5 47.7C101.4 54.7 110.8 65.5 117 78.7C121.8 68.4 129.1 58.1 138.7 48.1C132.2 28.2 123 12 119.3 6C118.9 5.4 118.5 4.80001 118.1 4.10001C117.2 3.10001 116.6 3 116.5 3ZM185.2 22C184.8 22 184.3 22.1 183.9 22.3C183.9 22.3 183.2 22.5 182 23.1C180.8 23.6 179.2 24.3 177.2 25.3L176.5 25.6C170.4 28.6 164.4 31.9 158.6 35.5C157.9 35.9 157.3 36.3 156.7 36.7C158.5 37.6 159.8 39.4 160.3 41.8V42C161.1 45.9 163.9 60.1 163.9 76.5C163.9 88.4 162.5 99 159.7 108C156.7 117.5 151.2 123.5 146.5 127.2C158.6 126.6 169.4 119 177.1 105.6C187.2 87.8 189.4 64.7 189.4 48.3C189.4 42.5 189.1 36.7 188.6 31.1C188.2 26.9 187.9 24.5 187.9 24.5C187.6 22.8 186.7 22 185.2 22ZM151.7 8.2C151.5 8.2 151.4 8.2 151.2 8.2C150.8 8.3 150.4 8.4 150.1 8.7C150.1 8.7 147.4 10.3 143.3 13.3C139.8 15.8 136.3 18.5 133 21.3C136.2 27.9 139 34.7 141.5 41.5C146.8 37.3 152.6 33.4 159.1 29.4C157.2 20 155.1 13 154.3 10.4L154.2 10.2C153.7 8.9 152.8 8.2 151.7 8.2ZM81.2 8.2C80.1 8.2 79.2 8.9 78.7 10.2C76.7 16.5 75.1 22.9 73.8 29.4C80.4 33.4 86.1 37.3 91.4 41.5C93.9 34.6 96.7 27.8 100 21.3C96.7 18.5 93.2 15.9 89.7 13.3C85.6 10.4 82.9 8.7 82.9 8.7C82.6 8.4 82.2 8.3 81.7 8.2C81.5 8.2 81.3 8.2 81.2 8.2ZM22 52.3C18.4 52.3 16.4 52.4 16.4 52.4C15 52.5 13.6 53.3 12.9 54.5C12.4 55.3 12.1 56.2 12.2 57.1C12.5 59.5 14.1 68.4 24.7 81.8C30.1 79.1 35.5 76.7 40.7 74.8C39.6 68.1 39 60.9 38.8 53.2C33.9 52.7 29 52.5 24.1 52.4C23.3 52.3 22.6 52.3 22 52.3ZM210.9 52.3C205.3 52.3 199.8 52.6 194.2 53.1C194 60.3 193.4 67.6 192.3 74.7C197.8 76.8 203.1 79.1 208.3 81.7C218.9 68.3 220.5 59.4 220.8 57C220.9 56.2 220.4 54.9 220.1 54.4C219.2 53.1 218 52.4 216.5 52.3C216.5 52.4 214.4 52.3 210.9 52.3Z" fill="#C60C30"/>
<path d="M191.4 79.7C189.2 90.6 185.8 100.2 181.3 108.1C176.6 116.4 170.7 122.7 163.7 126.8C214.1 124.1 228.3 107.8 229.8 106C231.1 104 230.7 101.3 228.8 99.8C228.8 99.8 228.2 99.4 227.1 98.7C226.3 98.1 225.1 97.3 223.7 96.4L222.5 95.6C217.2 92.2 211.6 89.1 206 86.2C201.2 83.7 196.4 81.6 191.4 79.7ZM41.5 79.7C24.5 86.1 10.8 95.1 5.69999 98.7C4.69999 99.4 4.09999 99.8 4.09999 99.8C2.99999 100.6 2.29999 102 2.29999 103.5C2.29999 104.4 2.59999 105.4 3.09999 106.1C3.19999 106.2 3.29999 106.3 3.39999 106.5L3.59999 106.7C3.89999 107.1 4.79999 107.9 5.99999 109C8.09999 110.8 11.9 113.5 18.1 116.3C30.8 122.1 48.4 125.7 69.1 126.8C62.2 122.7 56.2 116.2 51.5 108C47 100.1 43.6 90.6 41.5 79.7ZM185.1 130.4C182.5 130.4 178.7 130.9 172.9 131.7C172 131.8 171.1 131.9 170.2 132.1C167.7 132.5 164.6 132.6 160.5 132.6C157.9 132.6 155.3 132.6 152.7 132.5H152.5C149.9 132.4 146.9 132.4 144 132.4C137.8 132.4 129.9 132.6 122.8 134.6C122.4 134.7 122.2 135.1 122.2 135.3C122.2 135.5 122.7 135.6 123 135.6C123.1 135.6 123.2 135.6 123.3 135.6C126.1 135.4 128.8 135.2 131.3 135.2C140.5 135.2 146.7 136.8 152.8 138.3C158.5 139.7 163.9 141.1 171.4 141.1C179.4 141.1 185.7 139.4 188.3 136.6C189.2 135.6 189.6 134.6 189.5 133.5C189.3 131.4 188.6 130.4 185.1 130.4ZM47.8 130.4C44.3 130.4 43.6 131.4 43.4 133.5C43.3 134.6 43.7 135.6 44.5 136.6C47 139.4 53.5 141.2 61.4 141.2C68.9 141.2 74.3 139.8 80 138.4C86.1 136.9 92.3 135.3 101.5 135.3C104 135.3 106.7 135.4 109.5 135.7C109.6 135.7 109.7 135.7 109.8 135.7C110.2 135.7 110.6 135.6 110.6 135.4C110.6 135.2 110.4 134.8 110 134.7C103 132.7 95 132.5 88.8 132.5C85.8 132.5 82.9 132.6 80.3 132.6H80.1C77.4 132.7 74.8 132.7 72.3 132.7C68.2 132.7 65.1 132.5 62.6 132.2C61.7 132.1 60.8 132 59.8 131.8C54.1 131 50.3 130.4 47.8 130.4Z" fill="#C60C30"/>
</svg>
