<svg xmlns="http://www.w3.org/2000/svg" viewBox="0 0 380.08 197.867" height="197.867" width="380.08"><path d="M354.444 172.85H33.669V28.74h320.775v144.11" fill="#21303d"/><path d="M321.975 28.74L318.66 0 69.476 28.74z" fill="#c0df17"/><path d="M354.444 52.272v120.579H77.739l-19.6 2.26 311.44 22.756 10.501-143.72-25.636-1.875" fill="#e4048d"/><path d="M226.364 86.85c.07 2.267 1.615 2.572 3.115 2.572.632 0 1.405-.12 2.154-.23.572-.089 1.115-.173 1.594-.2l-1.235 7.013c-1.803.502-4.435 1.082-6.915 1.082-5.786 0-8.633-2.306-8.716-7.054 0-1.43.251-2.905.536-4.406l4.667-26.763 9.772-1.27-1.48 8.601h7.392l-1.245 7.437h-7.447l-2.07 11.354c-.122.668-.122 1.386-.122 1.863m103.795-13.178c-2.847-.852-5.848-1.638-8.536-1.638-2.234 0-3.228 1.206-3.228 2.4 0 2.007 1.698 2.678 4.776 3.886l.818.327c3.195 1.27 6.467 3.215 6.467 8.078 0 6.494-4.987 10.363-13.327 10.363-3.65 0-7.926-.727-10.686-1.81l1.812-6.958c2.977.931 6.125 1.787 9.085 1.787h.09c2.755-.015 3.338-1.333 3.338-2.435 0-1.602-2.113-2.374-4.352-3.191-.235-.088-.476-.174-.708-.26-3.36-1.267-6.933-3.073-6.933-8.485 0-6.337 5-10.433 12.734-10.433 4.735 0 8.856 1.302 10.18 1.77-.285 1.413-1.314 5.725-1.53 6.6m-213.9 4.974c3.204 1.27 6.468 3.215 6.468 8.078 0 6.494-4.98 10.363-13.326 10.363-3.653 0-7.922-.727-10.692-1.81l1.824-6.958c2.964.931 6.118 1.787 9.087 1.787h.081c2.763-.015 3.341-1.333 3.341-2.435 0-1.602-2.111-2.374-4.354-3.191-.233-.088-.47-.174-.7-.26-3.358-1.267-6.941-3.073-6.941-8.485 0-6.337 4.998-10.433 12.733-10.433 4.735 0 8.855 1.302 10.188 1.77-.298 1.413-1.328 5.725-1.532 6.6-2.857-.853-5.854-1.64-8.545-1.64-2.226 0-3.22 1.207-3.22 2.4 0 2.008 1.69 2.679 4.767 3.887l.822.327m150.42-13.344c-5.425 0-14.868 1.997-17.225 15.359-.319 1.773-.354 3.566-.354 4.76 0 7.524 4.018 11.666 11.311 11.666 9.441 0 15.783-5.874 17.4-16.12.2-1.33.295-2.771.295-4.406 0-10.157-8-11.259-11.427-11.259m.972 16.427c-1.016 5.848-2.788 8.454-5.768 8.454-1.984 0-3.036-1.688-3.036-4.877 0-1.641.193-3.678.53-5.47.929-5.133 2.829-7.742 5.64-7.742 2.06 0 3.113 1.587 3.113 4.705 0 1.086-.082 2.838-.479 4.93m-32.657 14.415l5.261-29.949h9.565l-5.262 29.95zm10.646-33.392c-2.64 0-4.284-1.504-4.284-3.928 0-3.127 2.639-5.576 5.994-5.576 2.56 0 4.338 1.663 4.338 4.039 0 3.065-2.658 5.465-6.048 5.465m-58.95 23.38c0 6.926 3.281 10.897 9.008 10.897 3.382 0 6.045-1.201 8.157-3.667l.055-.07.506.106v2.746h8.042l.401-6.24 3.937-22.287c-4.3-1.703-8.696-2.315-11.176-2.315-11.672 0-18.93 7.982-18.93 20.83m19.87-13.682l-2.497 14.36c-.64 2.221-2.153 3.494-4.167 3.494-3.264 0-3.645-3.02-3.645-5.294 0-5.06 2.03-13.093 7.483-13.093 1.058 0 2.029.171 2.718.484zm-18.568 1.63c-.397-.166-.798-.311-1.205-.427a8.195 8.195 0 00-2.183-.313c-2.705 0-4.706 1.696-5.237 4.43l-3.284 18.374h-9.559l5.274-29.949h6.868l.194 4.562.262-.441c2.65-4.523 6.205-5.014 7.602-5.014 1.446 0 2.931.315 4.026.818l-2.758 7.96M56.167 96.144l5.265-29.949h9.561l-5.264 29.95zm10.646-33.392c-2.638 0-4.28-1.504-4.28-3.928 0-3.127 2.637-5.576 5.999-5.576 2.552 0 4.334 1.663 4.334 4.039 0 3.065-2.657 5.465-6.053 5.465m86.583 33.392l5.264-29.949h9.561l-5.268 29.95zm10.643-33.392c-2.638 0-4.286-1.504-4.286-3.928 0-3.127 2.64-5.576 6.003-5.576 2.553 0 4.332 1.663 4.332 4.039 0 3.065-2.659 5.465-6.05 5.465m-22.186 2.55c-3.057 0-8.405.585-13.448 2.216l-7.222 41.03h9.558l2.2-12.47.175.078c1.014.45 2.772.931 4.662.931 9.64 0 15.863-7.708 15.863-19.641 0-8.058-3.963-12.144-11.788-12.144m-4.835 25.062c-.864 0-1.816-.184-2.84-.547l-.118-.04 2.992-16.985.076-.037c.722-.297 1.965-.477 3.25-.477 3.32 0 3.698 3.083 3.698 5.406 0 5.846-1.855 12.68-7.058 12.68M91.164 65.302c5.098 0 7.708 2.42 7.77 7.175 0 .884-.106 2.039-.288 3.23l-3.648 20.437h-9.556l3.04-17.486.066-.395c.183-.924.406-2.075.406-3.066 0-1.669-.872-2.633-2.398-2.633-2.4 0-4.105 1.686-4.574 4.504l-3.348 19.076h-9.507l5.334-29.949h7.106l.127 3.477.251-.274c2.454-2.715 5.56-4.096 9.219-4.096m207.943 0c5.106 0 7.714 2.42 7.774 7.175 0 .884-.108 2.039-.298 3.23l-3.646 20.437h-9.549l3.041-17.486.076-.395c.171-.924.391-2.075.391-3.066 0-1.669-.867-2.633-2.39-2.633-2.4 0-4.109 1.686-4.577 4.504l-3.336 19.076h-9.508l5.336-29.949h7.099l.13 3.477.247-.274c2.455-2.715 5.555-4.096 9.21-4.096" fill="#fff"/><path d="M245.973 133.421c0-.479 0-1.195.123-1.87l2.057-11.351h7.452l1.247-7.427h-7.393l1.477-8.598-9.772 1.26-4.668 26.763c-.27 1.497-.523 2.971-.523 4.406.075 4.739 2.928 7.044 8.708 7.044 2.479 0 5.11-.581 6.908-1.084l1.238-7.012c-.474.034-1.019.117-1.59.2-.753.113-1.525.225-2.152.225-1.504 0-3.041-.285-3.112-2.556m-45.561 9.295l5.255-29.943h-9.547l-5.277 29.943zm1.077-33.388c3.392 0 6.05-2.4 6.05-5.463 0-2.379-1.786-4.04-4.343-4.04-3.35 0-5.98 2.45-5.98 5.57 0 2.428 1.641 3.933 4.273 3.933m-39.292 23.365c0-12.827 7.251-20.821 18.926-20.821 2.473 0 6.87.614 11.168 2.321l-3.934 22.276-.402 6.247h-8.031v-2.75l-.51-.105-.06.068c-2.103 2.46-4.78 3.664-8.151 3.664-5.727 0-9.006-3.969-9.006-10.9m19.762-13.72c-.702-.312-1.67-.49-2.719-.49-5.455 0-7.49 8.041-7.49 13.097 0 2.263.387 5.283 3.64 5.283 2.027 0 3.54-1.277 4.18-3.49l2.486-14.344zm-32.976-7.101c7.82 0 11.785 4.09 11.785 12.148 0 11.93-6.23 19.628-15.85 19.628-1.9 0-3.658-.476-4.673-.93l-.174-.075-2.198 12.466h-9.556l7.222-41.016c5.045-1.63 10.394-2.221 13.444-2.221m-4.844 25.056c5.214 0 7.065-6.837 7.065-12.667 0-2.335-.38-5.422-3.703-5.422-1.274 0-2.521.19-3.244.49l-.069.04-2.995 16.982.115.032c1.032.36 1.972.545 2.83.545m82.913-25.056c5.11 0 7.72 2.433 7.778 7.177 0 .889-.112 2.032-.302 3.224l-3.639 20.443h-9.552l3.033-17.495.082-.394c.174-.913.393-2.064.393-3.06 0-1.663-.872-2.63-2.399-2.63-2.386 0-4.098 1.683-4.57 4.498l-3.335 19.081h-9.51l5.322-29.943h7.1l.14 3.463.245-.273c2.462-2.704 5.558-4.091 9.214-4.091M259.492 102.83c1.583 0 2.86 1.294 2.86 2.917 0 1.633-1.277 2.91-2.872 2.91a2.888 2.888 0 01-2.896-2.91 2.9 2.9 0 012.896-2.916zm-.012.45c-1.277 0-2.33 1.1-2.33 2.467 0 1.38 1.053 2.458 2.342 2.458 1.295.019 2.336-1.078 2.336-2.455 0-1.37-1.041-2.47-2.336-2.47zm-.55 4.146h-.509v-3.248c.26-.036.531-.069.919-.069.48 0 .804.102.999.233.197.155.302.377.302.688 0 .423-.282.677-.632.78v.031c.291.053.479.315.54.793.071.5.158.701.216.792h-.549c-.079-.09-.161-.398-.22-.82-.087-.414-.288-.575-.693-.575h-.374zm0-1.79h.373c.43 0 .792-.153.792-.558 0-.285-.199-.57-.792-.57-.156 0-.279.014-.374.026v1.101M33.669 172.85V32.87L0 36.753l16.505 143.156 61.234-7.057H33.67" fill="#51c7eb"/></svg>