<?xml version="1.0" encoding="UTF-8"?>
<svg xmlns="http://www.w3.org/2000/svg" width="64" height="64" viewBox="0 0 64 64" fill="none">
  <path d="M42.2604 18.6958C38.2855 9.65119 27.7407 5.54135 18.696 9.5162C9.6512 13.491 5.54132 24.0356 9.51622 33.0803L42.2604 18.6958Z" fill="black"></path>
  <path d="M25.1533 29.068C20.1584 37.5876 23.0084 48.5447 31.5281 53.5395C40.0479 58.5343 51.0051 55.6844 56 47.1648L25.1533 29.068Z" fill="black"></path>
  <path d="M48.9727 37.6026C52.8538 37.6026 56 34.4564 56 30.5754C56 26.6944 52.8538 23.5482 48.9727 23.5482C45.0916 23.5482 41.9454 26.6944 41.9454 30.5754C41.9454 34.4564 45.0916 37.6026 48.9727 37.6026Z" fill="black"></path>
</svg>
